<svg xmlns="http://www.w3.org/2000/svg" width="22.228" height="22.228" viewBox="0 0 22.228 22.228">
  <path id="noun-dashboard-4717243" d="M107.382,44.526h4.763a2.381,2.381,0,0,0,2.382-2.382V37.382A2.381,2.381,0,0,0,112.145,35h-4.763A2.381,2.381,0,0,0,105,37.382v4.763a2.381,2.381,0,0,0,2.382,2.382Zm-.794-7.145a.794.794,0,0,1,.794-.794h4.763a.794.794,0,0,1,.794.794v4.763a.794.794,0,0,1-.794.794h-4.763a.794.794,0,0,1-.794-.794ZM124.847,35h-5.557a2.381,2.381,0,0,0-2.382,2.382v5.557a2.381,2.381,0,0,0,2.382,2.382h5.557a2.381,2.381,0,0,0,2.382-2.382V37.382A2.381,2.381,0,0,0,124.847,35Zm.794,7.939a.794.794,0,0,1-.794.794h-5.557a.794.794,0,0,1-.794-.794V37.382a.794.794,0,0,1,.794-.794h5.557a.794.794,0,0,1,.794.794Zm-.794,4.763h-4.763a2.381,2.381,0,0,0-2.382,2.382v4.763a2.381,2.381,0,0,0,2.382,2.382h4.763a2.381,2.381,0,0,0,2.382-2.382V50.083a2.381,2.381,0,0,0-2.382-2.382Zm.794,7.145a.794.794,0,0,1-.794.794h-4.763a.794.794,0,0,1-.794-.794V50.083a.794.794,0,0,1,.794-.794h4.763a.794.794,0,0,1,.794.794Zm-12.7-7.939h-5.557A2.381,2.381,0,0,0,105,49.289v5.557a2.381,2.381,0,0,0,2.382,2.382h5.557a2.381,2.381,0,0,0,2.382-2.382V49.289a2.381,2.381,0,0,0-2.382-2.382Zm.794,7.939a.794.794,0,0,1-.794.794h-5.557a.794.794,0,0,1-.794-.794V49.289a.794.794,0,0,1,.794-.794h5.557a.794.794,0,0,1,.794.794Z" transform="translate(-105 -35)" fill="#9d9d9d"/>
</svg>
