<svg xmlns="http://www.w3.org/2000/svg" width="28.881" height="22.037" viewBox="0 0 28.881 22.037">
  <path id="Union_1" data-name="Union 1" d="M3.373,0A3.38,3.38,0,0,0,0,3.374V18.663a3.38,3.38,0,0,0,3.373,3.374H15.215a3.38,3.38,0,0,0,3.373-3.374V15.839a1.377,1.377,0,1,0-2.754,0v2.824a.617.617,0,0,1-.619.62H3.374a.617.617,0,0,1-.62-.62V3.374a.617.617,0,0,1,.62-.62H15.216a.617.617,0,0,1,.619.62V6.2a1.377,1.377,0,1,0,2.754,0V3.374A3.38,3.38,0,0,0,15.215,0ZM21.618,4.924a1.372,1.372,0,0,0,0,1.963l2.754,2.755h-13.7a1.377,1.377,0,0,0,0,2.754h13.7l-2.788,2.755a1.388,1.388,0,0,0,1.962,1.963l5.094-5.165v-.172a1.437,1.437,0,0,0,.241-.792,1.271,1.271,0,0,0-.241-.792V10.02l-5.095-5.1a1.331,1.331,0,0,0-1.928,0Z" transform="translate(28.881 22.037) rotate(180)" fill="#9d9d9d"/>
</svg>
