<svg xmlns="http://www.w3.org/2000/svg" width="19.741" height="24.012" viewBox="0 0 19.741 24.012">
  <path id="noun-shopping-bag-4952463" d="M165.084,50.5l-1.748-11.2a3.984,3.984,0,0,0-3.955-3.384h-.12v-2.4a2.4,2.4,0,0,0-2.4-2.4h-3.2a2.386,2.386,0,0,0-1.7.705,2.416,2.416,0,0,0-.705,1.7v2.4h-.12a3.984,3.984,0,0,0-3.955,3.384l-1.748,11.21a4,4,0,0,0,3.954,4.615h11.736a4,4,0,0,0,3.954-4.622ZM152.86,33.511a.8.8,0,0,1,.8-.8h3.2a.8.8,0,0,1,.8.8v2.4h-4.8Zm10.092,19.172a2.4,2.4,0,0,1-1.823.84H149.393a2.4,2.4,0,0,1-2.386-2.776l1.763-11.2a2.393,2.393,0,0,1,2.371-2.034h.12v3.2h1.6v-3.2h4.8v3.2h1.6v-3.2h.12a2.393,2.393,0,0,1,2.371,2.034l1.763,11.2a2.4,2.4,0,0,1-.563,1.936Z" transform="translate(-145.392 -31.11)" fill="#9d9d9d"/>
</svg>
