<svg xmlns="http://www.w3.org/2000/svg" width="30.588" height="27.092" viewBox="0 0 30.588 27.092">
  <path id="Path_919" data-name="Path 919" d="M131.218,67.37h-5.244V65.622A2.625,2.625,0,0,0,123.353,63h-6.118a2.625,2.625,0,0,0-2.622,2.622V67.37H109.37a4.375,4.375,0,0,0-4.37,4.37V85.722a4.375,4.375,0,0,0,4.37,4.37h21.848a4.375,4.375,0,0,0,4.37-4.37V71.739A4.375,4.375,0,0,0,131.218,67.37Zm-14.857-1.748a.875.875,0,0,1,.874-.874h6.118a.875.875,0,0,1,.874.874V67.37h-7.865Zm-9.613,6.118a2.625,2.625,0,0,1,2.622-2.622h21.848a2.625,2.625,0,0,1,2.622,2.622v4.37a2.625,2.625,0,0,1-2.622,2.622h-1.311V76.983a.874.874,0,0,0-.874-.874h-3.5a.874.874,0,0,0-.874.874v1.748h-8.739V76.983a.874.874,0,0,0-.874-.874h-3.5a.874.874,0,0,0-.874.874v1.748H109.37a2.625,2.625,0,0,1-2.622-2.622Zm21.411,6.118v3.5h-1.748v-3.5Zm-13.983,0v3.5h-1.748v-3.5Zm17.042,10.487H109.37a2.625,2.625,0,0,1-2.622-2.622V79.6a4.342,4.342,0,0,0,2.622.882h1.311v1.748a.874.874,0,0,0,.874.874h3.5a.874.874,0,0,0,.874-.874V80.479h8.739v1.748a.874.874,0,0,0,.874.874h3.5a.874.874,0,0,0,.874-.874V80.479h1.311a4.342,4.342,0,0,0,2.622-.882v6.126A2.625,2.625,0,0,1,131.218,88.344Z" transform="translate(-105 -63)" fill="#9d9d9d"/>
</svg>
