<svg xmlns="http://www.w3.org/2000/svg" width="26.31" height="21.415" viewBox="0 0 26.31 21.415">
  <path id="Path_1" data-name="Path 1" d="M112.255,84a3.059,3.059,0,1,0,3.058,3.059A3.072,3.072,0,0,0,112.255,84Zm0,1.836a1.224,1.224,0,1,1-1.223,1.224A1.21,1.21,0,0,1,112.255,85.836Zm5.714.306a.919.919,0,0,0,.1,1.836h16.512a.918.918,0,1,0,0-1.836H117.969Zm-5.714,5.507a3.059,3.059,0,1,0,3.058,3.059,3.072,3.072,0,0,0-3.058-3.059Zm0,1.836a1.224,1.224,0,1,1-1.223,1.224A1.21,1.21,0,0,1,112.255,93.484Zm5.714.306a.919.919,0,0,0,.1,1.836h16.512a.918.918,0,1,0,0-1.836H117.969ZM112.255,99.3a3.059,3.059,0,1,0,3.058,3.059A3.072,3.072,0,0,0,112.255,99.3Zm0,1.836a1.224,1.224,0,1,1-1.223,1.224A1.21,1.21,0,0,1,112.255,101.132Zm5.714.306a.919.919,0,0,0,.1,1.836h11.008a.918.918,0,1,0,0-1.836h-11.1Z" transform="translate(-109.197 -84)" fill="#9d9d9d"/>
</svg>
